<svg width="1000" height="1300" shape-rendering="crispEdges">

  <!-- masks -->
  <defs>
    <mask id="cie-1">
      <rect width="100%" height="100%" fill="white"/>
      <rect x="20"  y="160"  rx="100" ry="100" width="960" height="980" style="fill:rgb(0,0,0);" />

      <!-- weird line -->
      <polygon points="10,320 20,250 980,250 990,320 990,980 980,1050 20,1050 10,980" fill="black" />
      
    </mask>
    <mask id="cie-2">
      <rect width="100%" height="100%" fill="white"/>
      <rect x="220"  y="160"  rx="100" ry="100" width="560" height="410" style="fill:rgb(0,0,0);" />
      <rect x="220"  y="730"  rx="100" ry="100" width="560" height="410" style="fill:rgb(0,0,0);" />

      <!-- weird lines -->
      <polygon points="210,410 220,480 780,480 790,410" fill="black" />
      <polygon points="210,890, 220,820 780,820 790,890" fill="black" />
    </mask>
    <mask id="skew-1">
      <rect width="100%" height="100%" fill="whitle" />
      <polygon points="10,320 20,260 20,320" fill="black" />
    </mask>
  </defs>
  
  <!-- Upper and lower rectangles -->
  <rect x="0"    y="0"    rx="10" ry="10" width="1000" height="160" style="fill:rgb(0,0,0);" />
  <rect x="0"    y="1140" rx="10" ry="10" width="1000" height="160" style="fill:rgb(0,0,0);" />

  <!-- Rectangles for vertical lines (upper and lower) -->
  <rect x="0"    y="0"    rx="10" ry="10" width="160"  height="320" style="fill:rgb(0,0,0);" mask="url(#cie-1)" /> 
  <rect x="840"  y="0"    rx="10" ry="10" width="160"  height="320" style="fill:rgb(0,0,0);" mask="url(#cie-1)" /> 
  <rect x="0"    y="980"  rx="10" ry="10" width="160"  height="320" style="fill:rgb(0,0,0);" mask="url(#cie-1)" /> 
  <rect x="840"  y="980"  rx="10" ry="10" width="160"  height="320" style="fill:rgb(0,0,0);" mask="url(#cie-1)" /> 

  <!-- Rectangle for inner rounded corners (upper and lower) -->
  <!-- <rect x="40"  y="160"  rx="100" ry="100" width="920" height="980" style="fill:rgb(255,255,255);" /> -->
  
  <!-- Middle rectangle -->
  <rect x="200"  y="570"  rx="10" ry="10" width="600"  height="160" style="fill:rgb(0,0,0);" />

  <!-- Rectangles for vertical lines (middle) -->
  <rect x="200"  y="410"  rx="10" ry="10" width="160"  height="480" style="fill:rgb(0,0,0);" mask="url(#cie-2)"/>
  <rect x="640"  y="410"  rx="10" ry="10" width="160"  height="480" style="fill:rgb(0,0,0);" mask="url(#cie-2)"/>
  
</svg> 
